<svg width="30" height="30" viewBox="0 0 30 30" fill="none" xmlns="http://www.w3.org/2000/svg">
<g id="icon-docx">
<path id="Vector" d="M16.25 2.5H7.5C6.83696 2.5 6.20107 2.76339 5.73223 3.23223C5.26339 3.70107 5 4.33696 5 5V25C5 25.663 5.26339 26.2989 5.73223 26.7678C6.20107 27.2366 6.83696 27.5 7.5 27.5H22.5C23.163 27.5 23.7989 27.2366 24.2678 26.7678C24.7366 26.2989 25 25.663 25 25V11.25L16.25 2.5Z" stroke="#303030" stroke-linecap="round" stroke-linejoin="round"/>
<path id="Vector_2" d="M16.25 2.5V11.25H25" stroke="#303030" stroke-linecap="round" stroke-linejoin="round"/>
<path id="Rectangle 2" d="M2.8125 14.0625H16.9853C19.5741 14.0625 21.6728 16.1612 21.6728 18.75C21.6728 21.3388 19.5741 23.4375 16.9853 23.4375H2.8125V14.0625Z" fill="#303030"/>
<g id="DOC">
<path d="M6.15144 21.4422H4.4118V16.3085H6.18654C6.69623 16.3085 7.13406 16.4113 7.50004 16.6169C7.86769 16.8207 8.15011 17.114 8.3473 17.4967C8.54449 17.8794 8.64309 18.3373 8.64309 18.8704C8.64309 19.4051 8.54366 19.8647 8.34479 20.2491C8.1476 20.6334 7.86267 20.9284 7.49001 21.1339C7.11902 21.3395 6.67283 21.4422 6.15144 21.4422ZM5.34178 20.6376H6.10632C6.46394 20.6376 6.76224 20.5724 7.00121 20.4421C7.24018 20.3101 7.41983 20.1137 7.54015 19.853C7.66047 19.5906 7.72063 19.2631 7.72063 18.8704C7.72063 18.4777 7.66047 18.1518 7.54015 17.8928C7.41983 17.6321 7.24185 17.4374 7.00622 17.3087C6.77227 17.1784 6.48149 17.1132 6.1339 17.1132H5.34178V20.6376Z" fill="#F5EDE5"/>
<path d="M13.6198 18.8754C13.6198 19.4285 13.5162 19.9023 13.309 20.2967C13.1034 20.6894 12.8227 20.9902 12.4667 21.1991C12.1125 21.408 11.7106 21.5124 11.261 21.5124C10.8115 21.5124 10.4087 21.408 10.0528 21.1991C9.69852 20.9885 9.41777 20.6869 9.21055 20.2942C9.005 19.8998 8.90223 19.4269 8.90223 18.8754C8.90223 18.3222 9.005 17.8493 9.21055 17.4566C9.41777 17.0622 9.69852 16.7606 10.0528 16.5517C10.4087 16.3428 10.8115 16.2384 11.261 16.2384C11.7106 16.2384 12.1125 16.3428 12.4667 16.5517C12.8227 16.7606 13.1034 17.0622 13.309 17.4566C13.5162 17.8493 13.6198 18.3222 13.6198 18.8754ZM12.6848 18.8754C12.6848 18.486 12.6238 18.1576 12.5018 17.8903C12.3815 17.6212 12.2144 17.4182 12.0005 17.2811C11.7866 17.1424 11.5401 17.0731 11.261 17.0731C10.9819 17.0731 10.7355 17.1424 10.5215 17.2811C10.3076 17.4182 10.1397 17.6212 10.0177 17.8903C9.89738 18.1576 9.83722 18.486 9.83722 18.8754C9.83722 19.2648 9.89738 19.594 10.0177 19.863C10.1397 20.1304 10.3076 20.3334 10.5215 20.4721C10.7355 20.6092 10.9819 20.6777 11.261 20.6777C11.5401 20.6777 11.7866 20.6092 12.0005 20.4721C12.2144 20.3334 12.3815 20.1304 12.5018 19.863C12.6238 19.594 12.6848 19.2648 12.6848 18.8754Z" fill="#F5EDE5"/>
<path d="M18.3991 18.0407H17.4616C17.4349 17.8869 17.3856 17.7507 17.3137 17.6321C17.2419 17.5118 17.1525 17.4098 17.0455 17.3263C16.9386 17.2427 16.8166 17.18 16.6795 17.1383C16.5442 17.0948 16.398 17.0731 16.2409 17.0731C15.9618 17.0731 15.7145 17.1433 15.4989 17.2836C15.2833 17.4224 15.1145 17.6262 14.9925 17.8953C14.8706 18.1627 14.8096 18.4894 14.8096 18.8754C14.8096 19.2681 14.8706 19.599 14.9925 19.868C15.1162 20.1354 15.285 20.3376 15.4989 20.4747C15.7145 20.61 15.961 20.6777 16.2384 20.6777C16.3921 20.6777 16.5358 20.6576 16.6695 20.6175C16.8049 20.5758 16.926 20.5148 17.033 20.4345C17.1416 20.3543 17.2327 20.2557 17.3062 20.1388C17.3814 20.0218 17.4332 19.8881 17.4616 19.7377L18.3991 19.7427C18.364 19.9867 18.288 20.2156 18.171 20.4295C18.0557 20.6434 17.9045 20.8323 17.7173 20.996C17.5301 21.1581 17.3112 21.2852 17.0606 21.3771C16.8099 21.4673 16.5316 21.5124 16.2258 21.5124C15.7746 21.5124 15.3719 21.408 15.0176 21.1991C14.6633 20.9902 14.3843 20.6886 14.1804 20.2942C13.9765 19.8998 13.8746 19.4269 13.8746 18.8754C13.8746 18.3222 13.9773 17.8493 14.1829 17.4566C14.3884 17.0622 14.6683 16.7606 15.0226 16.5517C15.3769 16.3428 15.778 16.2384 16.2258 16.2384C16.5116 16.2384 16.7773 16.2785 17.023 16.3587C17.2686 16.4389 17.4875 16.5567 17.6797 16.7121C17.8719 16.8659 18.0298 17.0547 18.1535 17.2786C18.2788 17.5009 18.3607 17.7549 18.3991 18.0407Z" fill="#F5EDE5"/>
</g>
</g>
</svg>
