<svg width="1352" height="426" fill="none" xmlns="http://www.w3.org/2000/svg">
<g clip-path="url(#clip0_175_44249)">
<path d="M263.332 212.698C263.332 95.8717 360.991 0 479.803 0C601.99 0 697.502 97.2291 697.502 212.698C697.502 330.127 600.61 426 481.183 426C358.844 426 263.332 328.771 263.332 212.698ZM685.083 230.938C685.083 113.358 581.447 12.0586 461.867 12.0586C356.085 12.0586 274.371 91.8013 275.75 196.418C277.13 313.244 379.541 413.94 498.967 413.94C604.137 413.94 685.083 334.197 685.083 230.938Z" fill="#FFF9F2"/>
<path d="M745.412 424.04V421.327C757.83 421.327 764.882 418.161 764.882 403.992V22.4595C764.882 8.2902 758.749 4.82377 745.719 4.67276V1.95801H803.363C865.912 1.95801 913.897 50.6489 913.897 110.645C913.897 170.792 865.912 220.084 803.363 220.084H785.579V403.841C785.579 418.01 792.324 421.327 804.743 421.327V424.04L745.412 424.04ZM785.579 217.371H802.75C853.495 217.371 892.588 168.833 892.588 110.645C892.588 52.6086 853.495 4.67276 802.75 4.67276H793.705C788.952 4.67276 785.579 7.98817 785.579 12.812V217.371Z" fill="#FFF9F2"/>
<path d="M955.105 424.04V421.327C967.37 421.327 974.267 418.01 974.267 403.841V22.1592C974.267 7.98817 967.37 4.67276 955.105 4.67276V1.95801H1014.13V4.67276C1001.86 4.67276 994.966 7.98817 994.966 22.1592V403.841C994.966 418.01 1001.86 421.327 1014.13 421.327V424.04H955.105Z" fill="#FFF9F2"/>
<path d="M1102.72 388.916C1096.74 385.299 1093.98 384.848 1090.76 384.848C1079.11 384.848 1077.43 397.962 1075.28 409.871H1072.52V343.694H1075.28C1108.24 389.52 1160.36 422.683 1218.01 422.683C1285.31 422.683 1333.45 382.737 1333.45 326.058C1333.45 268.021 1273.51 223.401 1209.88 190.388C1143.19 155.717 1092.45 126.925 1092.45 73.5615C1092.45 30.4494 1126.02 0 1178.3 0C1192.71 0 1208.04 0.904354 1237.94 10.7013C1242.84 12.3606 1292.67 28.3387 1301.87 30.2984V70.0951H1299.11C1299.87 52.0063 1291.29 39.644 1275.81 31.6558C1245.6 16.129 1215.25 5.27509 1183.05 5.27509C1138.44 5.27509 1112.23 29.092 1112.23 66.929C1112.23 118.182 1171.56 142.301 1227.67 174.108C1294.35 211.945 1352 249.027 1352 317.315C1352 380.024 1291.6 426 1220.77 426C1175.54 426 1145.8 414.995 1102.72 388.916Z" fill="#FFF9F2"/>
<path d="M224.353 406.181C226.192 420.64 242.888 421.242 245.646 421.242V423.953H187.283V421.242C189.429 421.242 205.665 420.64 203.827 405.879L203.165 18.9391L122.794 370.634L129.687 423.953H108.854L24.3556 37.7667L26.1367 409.343C24.9113 422.146 39.3099 421.242 42.0676 421.242V423.953H6.98975V421.242C18.0188 421.242 22.4604 417.929 23.5324 406.331L22.6699 27.223L21.9047 21.0483C20.219 6.28718 1.99066 4.9323 0 4.9323V2.2207H58.9732V4.9323C51.469 4.9323 41.2051 5.53386 42.8908 21.0483L121.108 356.325L200.866 13.6677C195.505 5.53386 183.709 4.9323 181.719 4.9323V2.2207H240.694V4.9323C237.936 4.9323 222.465 4.9323 224.303 19.6925L224.353 406.181Z" fill="#FFF9F2"/>
</g>
<defs>
<clipPath id="clip0_175_44249">
<rect width="1352" height="426" fill="white"/>
</clipPath>
</defs>
</svg>
