<svg width="30" height="30" viewBox="0 0 30 30" fill="none" xmlns="http://www.w3.org/2000/svg">
<g id="icon-jpg">
<path id="Vector" d="M16.25 2.5H7.5C6.83696 2.5 6.20107 2.76339 5.73223 3.23223C5.26339 3.70107 5 4.33696 5 5V25C5 25.663 5.26339 26.2989 5.73223 26.7678C6.20107 27.2366 6.83696 27.5 7.5 27.5H22.5C23.163 27.5 23.7989 27.2366 24.2678 26.7678C24.7366 26.2989 25 25.663 25 25V11.25L16.25 2.5Z" stroke="#303030" stroke-linecap="round" stroke-linejoin="round"/>
<path id="Vector_2" d="M16.25 2.5V11.25H25" stroke="#303030" stroke-linecap="round" stroke-linejoin="round"/>
<path id="Rectangle 2" d="M2.8125 14.0625H16.1029C18.6918 14.0625 20.7904 16.1612 20.7904 18.75C20.7904 21.3388 18.6918 23.4375 16.1029 23.4375H2.8125V14.0625Z" fill="#303030"/>
<g id="JPG">
<path d="M6.94351 16.0428H7.86597V19.6525C7.8643 19.9834 7.79411 20.2683 7.65541 20.5072C7.51671 20.7445 7.32286 20.9275 7.07386 21.0562C6.82653 21.1832 6.53827 21.2467 6.20905 21.2467C5.90825 21.2467 5.63753 21.1932 5.39689 21.0863C5.15792 20.9777 4.96825 20.8172 4.82787 20.605C4.6875 20.3928 4.61731 20.1287 4.61731 19.8129H5.54228C5.54395 19.9516 5.57403 20.0711 5.63252 20.1714C5.69268 20.2716 5.7754 20.3485 5.88068 20.402C5.98596 20.4554 6.10712 20.4822 6.24415 20.4822C6.39288 20.4822 6.51905 20.4513 6.62266 20.3894C6.72627 20.3259 6.80481 20.2323 6.85829 20.1087C6.91343 19.985 6.94184 19.833 6.94351 19.6525V16.0428Z" fill="#F5EDE5"/>
<path d="M8.3808 21.1765V16.0428H10.3059C10.7003 16.0428 11.0312 16.1164 11.2986 16.2634C11.5676 16.4105 11.7707 16.6127 11.9077 16.87C12.0464 17.1257 12.1158 17.4165 12.1158 17.7424C12.1158 18.0716 12.0464 18.364 11.9077 18.6197C11.769 18.8754 11.5643 19.0768 11.2936 19.2238C11.0228 19.3692 10.6895 19.4419 10.2934 19.4419H9.01749V18.6774H10.1681C10.3987 18.6774 10.5875 18.6373 10.7346 18.557C10.8816 18.4768 10.9903 18.3665 11.0604 18.2262C11.1323 18.0858 11.1682 17.9245 11.1682 17.7424C11.1682 17.5602 11.1323 17.3998 11.0604 17.2611C10.9903 17.1224 10.8808 17.0146 10.7321 16.9377C10.585 16.8592 10.3953 16.8199 10.163 16.8199H9.31078V21.1765H8.3808Z" fill="#F5EDE5"/>
<path d="M15.8686 17.6822C15.8268 17.5469 15.7692 17.4257 15.6956 17.3187C15.6238 17.2101 15.5369 17.1174 15.4349 17.0405C15.3347 16.9636 15.2194 16.906 15.089 16.8675C14.9587 16.8274 14.8166 16.8074 14.6629 16.8074C14.3871 16.8074 14.1415 16.8767 13.9259 17.0154C13.7103 17.1541 13.5407 17.358 13.4171 17.6271C13.2951 17.8944 13.2341 18.2203 13.2341 18.6047C13.2341 18.9924 13.2951 19.3208 13.4171 19.5898C13.539 19.8589 13.7087 20.0636 13.9259 20.2039C14.1432 20.3426 14.3955 20.412 14.6829 20.412C14.9436 20.412 15.1692 20.3619 15.3597 20.2616C15.5519 20.1613 15.6998 20.0193 15.8034 19.8355C15.907 19.65 15.9588 19.4327 15.9588 19.1837L16.1694 19.2163H14.7757V18.4894H16.8587V19.106C16.8587 19.5455 16.7651 19.9257 16.578 20.2466C16.3908 20.5674 16.1335 20.8147 15.8059 20.9885C15.4784 21.1607 15.1024 21.2467 14.6779 21.2467C14.205 21.2467 13.7897 21.1406 13.4321 20.9284C13.0761 20.7145 12.7979 20.4112 12.5974 20.0184C12.3985 19.6241 12.2991 19.1561 12.2991 18.6147C12.2991 18.2003 12.3576 17.8301 12.4745 17.5042C12.5932 17.1784 12.7586 16.9018 12.9709 16.6745C13.1831 16.4456 13.4321 16.2718 13.7179 16.1531C14.0036 16.0328 14.3144 15.9727 14.6503 15.9727C14.9344 15.9727 15.1993 16.0144 15.445 16.098C15.6906 16.1799 15.9087 16.2969 16.0992 16.4489C16.2914 16.601 16.4493 16.7815 16.573 16.9904C16.6966 17.1993 16.7777 17.4299 16.8161 17.6822H15.8686Z" fill="#F5EDE5"/>
</g>
</g>
</svg>
