<svg width="277" height="90" viewBox="0 0 277 90" fill="none" xmlns="http://www.w3.org/2000/svg">
<mask id="path-1-outside-1_175_44484" maskUnits="userSpaceOnUse" x="0" y="0" width="277" height="90" fill="black">
<rect fill="white" width="277" height="90"/>
<path d="M262.816 60.4069C261.695 60.4069 260.607 60.2476 259.568 59.9497C261.285 65.3954 260.714 71.5864 257.585 76.5181C252.625 84.3341 244.579 89 236.064 89C227.547 89 219.502 84.3334 214.544 76.5176C212.563 73.3952 211.605 69.7693 211.605 66.1459C211.606 63.5135 212.113 60.8836 213.098 58.4505C212.271 58.6591 211.413 58.7728 210.532 58.7728C206.488 58.7728 202.915 56.4555 200.804 52.9372C200.744 52.9478 200.681 52.9546 200.617 52.9546C200.208 52.9546 199.858 52.7254 199.706 52.3985C199.245 52.7458 198.657 52.9546 198.016 52.9546C197.361 52.9546 196.761 52.7366 196.296 52.3758C196.15 52.7144 195.794 52.9546 195.376 52.9546C194.828 52.9546 194.385 52.5444 194.385 52.0381V50.5026L86.8459 50.5026V52.0381C86.8459 52.5444 86.4021 52.9546 85.8547 52.9546C85.4456 52.9546 85.0947 52.7254 84.9433 52.3985C84.4821 52.7458 83.8941 52.9546 83.2529 52.9546C82.5979 52.9546 81.9985 52.7366 81.5331 52.3758C81.3874 52.7144 81.0314 52.9546 80.6133 52.9546C80.0658 52.9546 79.6219 52.5444 79.6219 52.0381V50.5026L41.9568 50.5026L5.39592 50.5025C2.96812 50.5025 1 48.2846 1 45.5486C1 42.8126 2.96812 40.5945 5.39592 40.5945H17.2856L17.2852 35.6437L11.3261 35.6441L11.3248 15.6532L20.7235 15.6526L20.7242 25.648L26.6252 25.6477L26.6247 15.6523L42.0894 15.651L42.0898 22.6657L47.9911 22.6646L47.9905 15.6507L57.3353 15.65L57.3366 35.6408L51.6545 35.641L51.6549 40.5945L79.6219 40.5945L79.6219 39.0591C79.6219 38.553 80.0658 38.1426 80.6133 38.1426C81.0314 38.1426 81.3874 38.3828 81.5331 38.7214C81.9985 38.3605 82.5979 38.1426 83.2529 38.1426C83.8941 38.1426 84.4822 38.3514 84.9433 38.6988C85.0948 38.3719 85.4456 38.1426 85.8547 38.1426C86.4021 38.1426 86.8459 38.553 86.8459 39.0591L86.8459 40.5945L194.385 40.5945V39.0591C194.385 38.553 194.828 38.1426 195.376 38.1426C195.794 38.1426 196.15 38.3828 196.296 38.7214C196.761 38.3605 197.361 38.1426 198.016 38.1426C198.657 38.1426 199.245 38.3514 199.706 38.6988C199.858 38.3719 200.208 38.1426 200.617 38.1426C200.681 38.1426 200.743 38.1492 200.804 38.16C202.915 34.6417 206.488 32.3243 210.532 32.3243C211.614 32.3243 212.661 32.4936 213.656 32.8039C212.304 30.0345 211.605 26.9461 211.605 23.8541C211.606 20.2314 212.563 16.6041 214.544 13.4824C219.502 5.66648 227.547 1 236.064 1C244.579 1 252.625 5.66591 257.585 13.4824C260.953 18.7905 261.359 25.5576 259.136 31.2835C260.305 30.8999 261.539 30.6902 262.816 30.6902C270.086 30.6902 276 37.3556 276 45.5483C276 53.7416 270.086 60.4069 262.816 60.4069ZM249.833 42.9781C249.259 43.6357 248.697 44.3101 248.146 45C248.649 45.6303 249.162 46.2472 249.685 46.8507C249.652 46.4211 249.631 45.9874 249.631 45.5483C249.631 44.6715 249.703 43.8136 249.833 42.9781ZM218.537 73.3007C222.576 79.6676 229.128 83.4684 236.064 83.4684C242.999 83.4684 249.551 79.6676 253.592 73.3007C254.957 71.1487 255.616 68.6463 255.616 66.1391C255.616 62.3408 254.103 58.5332 251.24 55.9241C249.029 53.9095 246.945 51.7018 244.995 49.3175C243.949 50.8849 242.955 52.5162 242.02 54.213C239.726 58.3704 238.957 61.6981 239.858 63.5785C240.899 65.7596 244.204 66.3322 245.381 66.3687C246.719 66.3977 247.787 67.63 247.787 69.1325V69.1878C247.761 70.7145 246.64 71.9286 245.285 71.8989C244.606 71.8841 238.898 71.6241 236.064 67.1566C233.231 71.6241 227.522 71.8841 226.842 71.8989C225.491 71.9286 224.377 70.7214 224.346 69.1986C224.345 69.1764 224.345 69.1547 224.345 69.1325C224.345 67.6394 225.406 66.4099 226.737 66.3687C227.923 66.3322 231.229 65.7596 232.271 63.5785C233.171 61.6954 232.402 58.3704 230.109 54.213C229.174 52.5162 228.18 50.8849 227.134 49.3175C225.183 51.7018 223.099 53.9095 220.889 55.9241C216.135 60.2565 215.103 67.8879 218.537 73.3007ZM241.746 45C240.362 43.0019 239.061 40.9037 237.849 38.7068C237.139 37.417 236.543 36.176 236.064 34.9835C235.584 36.176 234.99 37.417 234.279 38.7068C233.068 40.9037 231.766 43.0019 230.383 45C231.766 46.9981 233.068 49.0963 234.279 51.2932C234.99 52.5829 235.585 53.824 236.065 55.0165C236.544 53.824 237.139 52.5829 237.849 51.2932C239.061 49.0963 240.362 46.9981 241.746 45ZM222.177 47.1595C222.792 46.4586 223.394 45.7377 223.983 45C223.328 44.1802 222.658 43.3819 221.971 42.6079C222.162 43.5541 222.267 44.5374 222.267 45.5483C222.267 46.094 222.234 46.6309 222.177 47.1595ZM202.479 45.5483C202.479 50.5525 206.092 54.6241 210.532 54.6241C214.973 54.6241 218.586 50.5525 218.586 45.5483C218.586 40.5441 214.973 36.473 210.532 36.473C206.092 36.473 202.479 40.5441 202.479 45.5483ZM253.592 16.6999C249.551 10.3324 242.999 6.53151 236.064 6.53151C229.128 6.53151 222.576 10.3324 218.537 16.6993C215.103 22.1107 216.135 29.7435 220.889 34.0759C223.1 36.0905 225.183 38.2982 227.134 40.6825C228.18 39.1151 229.174 37.4838 230.109 35.787C232.402 31.6303 233.171 28.3012 232.271 26.4215C231.23 24.2404 227.924 23.6678 226.738 23.6313C225.403 23.5969 224.34 22.3666 224.34 20.8675V20.8122C224.367 19.2855 225.487 18.0714 226.842 18.1011C227.522 18.1159 233.231 18.3759 236.064 22.8434C238.898 18.3759 244.606 18.1159 245.285 18.1011C246.64 18.0714 247.761 19.2855 247.787 20.8122V20.8675C247.787 22.37 246.719 23.6023 245.381 23.6313C245.339 23.6328 241.103 23.8392 239.863 26.41C238.959 28.2911 239.721 31.6221 242.02 35.787C242.955 37.4838 243.949 39.1151 244.995 40.6824C246.945 38.2981 249.029 36.0905 251.24 34.0759C255.994 29.745 257.025 22.1107 253.592 16.6999ZM262.816 34.839C257.575 34.839 253.313 39.6432 253.313 45.5483C253.313 51.4538 257.575 56.2583 262.816 56.2583C268.056 56.2583 272.319 51.4538 272.319 45.5483C272.319 39.6432 268.056 34.839 262.816 34.839Z"/>
</mask>
<path d="M262.816 60.4069C261.695 60.4069 260.607 60.2476 259.568 59.9497C261.285 65.3954 260.714 71.5864 257.585 76.5181C252.625 84.3341 244.579 89 236.064 89C227.547 89 219.502 84.3334 214.544 76.5176C212.563 73.3952 211.605 69.7693 211.605 66.1459C211.606 63.5135 212.113 60.8836 213.098 58.4505C212.271 58.6591 211.413 58.7728 210.532 58.7728C206.488 58.7728 202.915 56.4555 200.804 52.9372C200.744 52.9478 200.681 52.9546 200.617 52.9546C200.208 52.9546 199.858 52.7254 199.706 52.3985C199.245 52.7458 198.657 52.9546 198.016 52.9546C197.361 52.9546 196.761 52.7366 196.296 52.3758C196.15 52.7144 195.794 52.9546 195.376 52.9546C194.828 52.9546 194.385 52.5444 194.385 52.0381V50.5026L86.8459 50.5026V52.0381C86.8459 52.5444 86.4021 52.9546 85.8547 52.9546C85.4456 52.9546 85.0947 52.7254 84.9433 52.3985C84.4821 52.7458 83.8941 52.9546 83.2529 52.9546C82.5979 52.9546 81.9985 52.7366 81.5331 52.3758C81.3874 52.7144 81.0314 52.9546 80.6133 52.9546C80.0658 52.9546 79.6219 52.5444 79.6219 52.0381V50.5026L41.9568 50.5026L5.39592 50.5025C2.96812 50.5025 1 48.2846 1 45.5486C1 42.8126 2.96812 40.5945 5.39592 40.5945H17.2856L17.2852 35.6437L11.3261 35.6441L11.3248 15.6532L20.7235 15.6526L20.7242 25.648L26.6252 25.6477L26.6247 15.6523L42.0894 15.651L42.0898 22.6657L47.9911 22.6646L47.9905 15.6507L57.3353 15.65L57.3366 35.6408L51.6545 35.641L51.6549 40.5945L79.6219 40.5945L79.6219 39.0591C79.6219 38.553 80.0658 38.1426 80.6133 38.1426C81.0314 38.1426 81.3874 38.3828 81.5331 38.7214C81.9985 38.3605 82.5979 38.1426 83.2529 38.1426C83.8941 38.1426 84.4822 38.3514 84.9433 38.6988C85.0948 38.3719 85.4456 38.1426 85.8547 38.1426C86.4021 38.1426 86.8459 38.553 86.8459 39.0591L86.8459 40.5945L194.385 40.5945V39.0591C194.385 38.553 194.828 38.1426 195.376 38.1426C195.794 38.1426 196.15 38.3828 196.296 38.7214C196.761 38.3605 197.361 38.1426 198.016 38.1426C198.657 38.1426 199.245 38.3514 199.706 38.6988C199.858 38.3719 200.208 38.1426 200.617 38.1426C200.681 38.1426 200.743 38.1492 200.804 38.16C202.915 34.6417 206.488 32.3243 210.532 32.3243C211.614 32.3243 212.661 32.4936 213.656 32.8039C212.304 30.0345 211.605 26.9461 211.605 23.8541C211.606 20.2314 212.563 16.6041 214.544 13.4824C219.502 5.66648 227.547 1 236.064 1C244.579 1 252.625 5.66591 257.585 13.4824C260.953 18.7905 261.359 25.5576 259.136 31.2835C260.305 30.8999 261.539 30.6902 262.816 30.6902C270.086 30.6902 276 37.3556 276 45.5483C276 53.7416 270.086 60.4069 262.816 60.4069ZM249.833 42.9781C249.259 43.6357 248.697 44.3101 248.146 45C248.649 45.6303 249.162 46.2472 249.685 46.8507C249.652 46.4211 249.631 45.9874 249.631 45.5483C249.631 44.6715 249.703 43.8136 249.833 42.9781ZM218.537 73.3007C222.576 79.6676 229.128 83.4684 236.064 83.4684C242.999 83.4684 249.551 79.6676 253.592 73.3007C254.957 71.1487 255.616 68.6463 255.616 66.1391C255.616 62.3408 254.103 58.5332 251.24 55.9241C249.029 53.9095 246.945 51.7018 244.995 49.3175C243.949 50.8849 242.955 52.5162 242.02 54.213C239.726 58.3704 238.957 61.6981 239.858 63.5785C240.899 65.7596 244.204 66.3322 245.381 66.3687C246.719 66.3977 247.787 67.63 247.787 69.1325V69.1878C247.761 70.7145 246.64 71.9286 245.285 71.8989C244.606 71.8841 238.898 71.6241 236.064 67.1566C233.231 71.6241 227.522 71.8841 226.842 71.8989C225.491 71.9286 224.377 70.7214 224.346 69.1986C224.345 69.1764 224.345 69.1547 224.345 69.1325C224.345 67.6394 225.406 66.4099 226.737 66.3687C227.923 66.3322 231.229 65.7596 232.271 63.5785C233.171 61.6954 232.402 58.3704 230.109 54.213C229.174 52.5162 228.18 50.8849 227.134 49.3175C225.183 51.7018 223.099 53.9095 220.889 55.9241C216.135 60.2565 215.103 67.8879 218.537 73.3007ZM241.746 45C240.362 43.0019 239.061 40.9037 237.849 38.7068C237.139 37.417 236.543 36.176 236.064 34.9835C235.584 36.176 234.99 37.417 234.279 38.7068C233.068 40.9037 231.766 43.0019 230.383 45C231.766 46.9981 233.068 49.0963 234.279 51.2932C234.99 52.5829 235.585 53.824 236.065 55.0165C236.544 53.824 237.139 52.5829 237.849 51.2932C239.061 49.0963 240.362 46.9981 241.746 45ZM222.177 47.1595C222.792 46.4586 223.394 45.7377 223.983 45C223.328 44.1802 222.658 43.3819 221.971 42.6079C222.162 43.5541 222.267 44.5374 222.267 45.5483C222.267 46.094 222.234 46.6309 222.177 47.1595ZM202.479 45.5483C202.479 50.5525 206.092 54.6241 210.532 54.6241C214.973 54.6241 218.586 50.5525 218.586 45.5483C218.586 40.5441 214.973 36.473 210.532 36.473C206.092 36.473 202.479 40.5441 202.479 45.5483ZM253.592 16.6999C249.551 10.3324 242.999 6.53151 236.064 6.53151C229.128 6.53151 222.576 10.3324 218.537 16.6993C215.103 22.1107 216.135 29.7435 220.889 34.0759C223.1 36.0905 225.183 38.2982 227.134 40.6825C228.18 39.1151 229.174 37.4838 230.109 35.787C232.402 31.6303 233.171 28.3012 232.271 26.4215C231.23 24.2404 227.924 23.6678 226.738 23.6313C225.403 23.5969 224.34 22.3666 224.34 20.8675V20.8122C224.367 19.2855 225.487 18.0714 226.842 18.1011C227.522 18.1159 233.231 18.3759 236.064 22.8434C238.898 18.3759 244.606 18.1159 245.285 18.1011C246.64 18.0714 247.761 19.2855 247.787 20.8122V20.8675C247.787 22.37 246.719 23.6023 245.381 23.6313C245.339 23.6328 241.103 23.8392 239.863 26.41C238.959 28.2911 239.721 31.6221 242.02 35.787C242.955 37.4838 243.949 39.1151 244.995 40.6824C246.945 38.2981 249.029 36.0905 251.24 34.0759C255.994 29.745 257.025 22.1107 253.592 16.6999ZM262.816 34.839C257.575 34.839 253.313 39.6432 253.313 45.5483C253.313 51.4538 257.575 56.2583 262.816 56.2583C268.056 56.2583 272.319 51.4538 272.319 45.5483C272.319 39.6432 268.056 34.839 262.816 34.839Z" fill="#F5EDE5"/>
<path d="M262.816 60.4069C261.695 60.4069 260.607 60.2476 259.568 59.9497C261.285 65.3954 260.714 71.5864 257.585 76.5181C252.625 84.3341 244.579 89 236.064 89C227.547 89 219.502 84.3334 214.544 76.5176C212.563 73.3952 211.605 69.7693 211.605 66.1459C211.606 63.5135 212.113 60.8836 213.098 58.4505C212.271 58.6591 211.413 58.7728 210.532 58.7728C206.488 58.7728 202.915 56.4555 200.804 52.9372C200.744 52.9478 200.681 52.9546 200.617 52.9546C200.208 52.9546 199.858 52.7254 199.706 52.3985C199.245 52.7458 198.657 52.9546 198.016 52.9546C197.361 52.9546 196.761 52.7366 196.296 52.3758C196.15 52.7144 195.794 52.9546 195.376 52.9546C194.828 52.9546 194.385 52.5444 194.385 52.0381V50.5026L86.8459 50.5026V52.0381C86.8459 52.5444 86.4021 52.9546 85.8547 52.9546C85.4456 52.9546 85.0947 52.7254 84.9433 52.3985C84.4821 52.7458 83.8941 52.9546 83.2529 52.9546C82.5979 52.9546 81.9985 52.7366 81.5331 52.3758C81.3874 52.7144 81.0314 52.9546 80.6133 52.9546C80.0658 52.9546 79.6219 52.5444 79.6219 52.0381V50.5026L41.9568 50.5026L5.39592 50.5025C2.96812 50.5025 1 48.2846 1 45.5486C1 42.8126 2.96812 40.5945 5.39592 40.5945H17.2856L17.2852 35.6437L11.3261 35.6441L11.3248 15.6532L20.7235 15.6526L20.7242 25.648L26.6252 25.6477L26.6247 15.6523L42.0894 15.651L42.0898 22.6657L47.9911 22.6646L47.9905 15.6507L57.3353 15.65L57.3366 35.6408L51.6545 35.641L51.6549 40.5945L79.6219 40.5945L79.6219 39.0591C79.6219 38.553 80.0658 38.1426 80.6133 38.1426C81.0314 38.1426 81.3874 38.3828 81.5331 38.7214C81.9985 38.3605 82.5979 38.1426 83.2529 38.1426C83.8941 38.1426 84.4822 38.3514 84.9433 38.6988C85.0948 38.3719 85.4456 38.1426 85.8547 38.1426C86.4021 38.1426 86.8459 38.553 86.8459 39.0591L86.8459 40.5945L194.385 40.5945V39.0591C194.385 38.553 194.828 38.1426 195.376 38.1426C195.794 38.1426 196.15 38.3828 196.296 38.7214C196.761 38.3605 197.361 38.1426 198.016 38.1426C198.657 38.1426 199.245 38.3514 199.706 38.6988C199.858 38.3719 200.208 38.1426 200.617 38.1426C200.681 38.1426 200.743 38.1492 200.804 38.16C202.915 34.6417 206.488 32.3243 210.532 32.3243C211.614 32.3243 212.661 32.4936 213.656 32.8039C212.304 30.0345 211.605 26.9461 211.605 23.8541C211.606 20.2314 212.563 16.6041 214.544 13.4824C219.502 5.66648 227.547 1 236.064 1C244.579 1 252.625 5.66591 257.585 13.4824C260.953 18.7905 261.359 25.5576 259.136 31.2835C260.305 30.8999 261.539 30.6902 262.816 30.6902C270.086 30.6902 276 37.3556 276 45.5483C276 53.7416 270.086 60.4069 262.816 60.4069ZM249.833 42.9781C249.259 43.6357 248.697 44.3101 248.146 45C248.649 45.6303 249.162 46.2472 249.685 46.8507C249.652 46.4211 249.631 45.9874 249.631 45.5483C249.631 44.6715 249.703 43.8136 249.833 42.9781ZM218.537 73.3007C222.576 79.6676 229.128 83.4684 236.064 83.4684C242.999 83.4684 249.551 79.6676 253.592 73.3007C254.957 71.1487 255.616 68.6463 255.616 66.1391C255.616 62.3408 254.103 58.5332 251.24 55.9241C249.029 53.9095 246.945 51.7018 244.995 49.3175C243.949 50.8849 242.955 52.5162 242.02 54.213C239.726 58.3704 238.957 61.6981 239.858 63.5785C240.899 65.7596 244.204 66.3322 245.381 66.3687C246.719 66.3977 247.787 67.63 247.787 69.1325V69.1878C247.761 70.7145 246.64 71.9286 245.285 71.8989C244.606 71.8841 238.898 71.6241 236.064 67.1566C233.231 71.6241 227.522 71.8841 226.842 71.8989C225.491 71.9286 224.377 70.7214 224.346 69.1986C224.345 69.1764 224.345 69.1547 224.345 69.1325C224.345 67.6394 225.406 66.4099 226.737 66.3687C227.923 66.3322 231.229 65.7596 232.271 63.5785C233.171 61.6954 232.402 58.3704 230.109 54.213C229.174 52.5162 228.18 50.8849 227.134 49.3175C225.183 51.7018 223.099 53.9095 220.889 55.9241C216.135 60.2565 215.103 67.8879 218.537 73.3007ZM241.746 45C240.362 43.0019 239.061 40.9037 237.849 38.7068C237.139 37.417 236.543 36.176 236.064 34.9835C235.584 36.176 234.99 37.417 234.279 38.7068C233.068 40.9037 231.766 43.0019 230.383 45C231.766 46.9981 233.068 49.0963 234.279 51.2932C234.99 52.5829 235.585 53.824 236.065 55.0165C236.544 53.824 237.139 52.5829 237.849 51.2932C239.061 49.0963 240.362 46.9981 241.746 45ZM222.177 47.1595C222.792 46.4586 223.394 45.7377 223.983 45C223.328 44.1802 222.658 43.3819 221.971 42.6079C222.162 43.5541 222.267 44.5374 222.267 45.5483C222.267 46.094 222.234 46.6309 222.177 47.1595ZM202.479 45.5483C202.479 50.5525 206.092 54.6241 210.532 54.6241C214.973 54.6241 218.586 50.5525 218.586 45.5483C218.586 40.5441 214.973 36.473 210.532 36.473C206.092 36.473 202.479 40.5441 202.479 45.5483ZM253.592 16.6999C249.551 10.3324 242.999 6.53151 236.064 6.53151C229.128 6.53151 222.576 10.3324 218.537 16.6993C215.103 22.1107 216.135 29.7435 220.889 34.0759C223.1 36.0905 225.183 38.2982 227.134 40.6825C228.18 39.1151 229.174 37.4838 230.109 35.787C232.402 31.6303 233.171 28.3012 232.271 26.4215C231.23 24.2404 227.924 23.6678 226.738 23.6313C225.403 23.5969 224.34 22.3666 224.34 20.8675V20.8122C224.367 19.2855 225.487 18.0714 226.842 18.1011C227.522 18.1159 233.231 18.3759 236.064 22.8434C238.898 18.3759 244.606 18.1159 245.285 18.1011C246.64 18.0714 247.761 19.2855 247.787 20.8122V20.8675C247.787 22.37 246.719 23.6023 245.381 23.6313C245.339 23.6328 241.103 23.8392 239.863 26.41C238.959 28.2911 239.721 31.6221 242.02 35.787C242.955 37.4838 243.949 39.1151 244.995 40.6824C246.945 38.2981 249.029 36.0905 251.24 34.0759C255.994 29.745 257.025 22.1107 253.592 16.6999ZM262.816 34.839C257.575 34.839 253.313 39.6432 253.313 45.5483C253.313 51.4538 257.575 56.2583 262.816 56.2583C268.056 56.2583 272.319 51.4538 272.319 45.5483C272.319 39.6432 268.056 34.839 262.816 34.839Z" stroke="#303030" stroke-width="2" mask="url(#path-1-outside-1_175_44484)"/>
</svg>
