<svg width="30" height="30" viewBox="0 0 30 30" fill="none" xmlns="http://www.w3.org/2000/svg">
<g id="icon-mp4">
<path id="Vector" d="M16.25 2.5H7.5C6.83696 2.5 6.20107 2.76339 5.73223 3.23223C5.26339 3.70107 5 4.33696 5 5V25C5 25.663 5.26339 26.2989 5.73223 26.7678C6.20107 27.2366 6.83696 27.5 7.5 27.5H22.5C23.163 27.5 23.7989 27.2366 24.2678 26.7678C24.7366 26.2989 25 25.663 25 25V11.25L16.25 2.5Z" stroke="#303030" stroke-linecap="round" stroke-linejoin="round"/>
<path id="Vector_2" d="M16.25 2.5V11.25H25" stroke="#303030" stroke-linecap="round" stroke-linejoin="round"/>
<path id="Rectangle 2" d="M2.8125 14.0625H17.8677C20.4565 14.0625 22.5551 16.1612 22.5551 18.75C22.5551 21.3388 20.4565 23.4375 17.8676 23.4375H2.8125V14.0625Z" fill="#303030"/>
<g id="MP4">
<path d="M4.91812 16.043H6.05616L7.58022 19.7629H7.64038L9.16445 16.043H10.3025V21.1767H9.4101V17.6498H9.36247L7.94369 21.1616H7.27691L5.85813 17.6422H5.8105V21.1767H4.91812V16.043Z" fill="#F5EDE5"/>
<path d="M10.8211 21.1767V16.043H12.7462C13.1406 16.043 13.4715 16.1165 13.7388 16.2636C14.0079 16.4106 14.2109 16.6128 14.348 16.8702C14.4867 17.1259 14.556 17.4166 14.556 17.7425C14.556 18.0717 14.4867 18.3642 14.348 18.6198C14.2093 18.8755 14.0046 19.0769 13.7338 19.224C13.4631 19.3693 13.1297 19.442 12.7337 19.442H11.4578V18.6775H12.6083C12.8389 18.6775 13.0278 18.6374 13.1748 18.5572C13.3219 18.477 13.4305 18.3667 13.5007 18.2263C13.5726 18.0859 13.6085 17.9247 13.6085 17.7425C13.6085 17.5603 13.5726 17.3999 13.5007 17.2612C13.4305 17.1225 13.3211 17.0147 13.1723 16.9379C13.0253 16.8593 12.8356 16.82 12.6033 16.82H11.751V21.1767H10.8211Z" fill="#F5EDE5"/>
<path d="M14.7268 20.2241V19.4846L16.9051 16.043H17.5218V17.0958H17.1458L15.6793 19.4195V19.4596H18.72V20.2241H14.7268ZM17.1758 21.1767V19.9985L17.1859 19.6676V16.043H18.0632V21.1767H17.1758Z" fill="#F5EDE5"/>
</g>
</g>
</svg>
