<svg width="30" height="30" viewBox="0 0 30 30" fill="none" xmlns="http://www.w3.org/2000/svg">
<g id="icon-pdf">
<path id="Vector" d="M16.25 2.5H7.5C6.83696 2.5 6.20107 2.76339 5.73223 3.23223C5.26339 3.70107 5 4.33696 5 5V25C5 25.663 5.26339 26.2989 5.73223 26.7678C6.20107 27.2366 6.83696 27.5 7.5 27.5H22.5C23.163 27.5 23.7989 27.2366 24.2678 26.7678C24.7366 26.2989 25 25.663 25 25V11.25L16.25 2.5Z" stroke="#303030" stroke-linecap="round" stroke-linejoin="round"/>
<path id="Vector_2" d="M16.25 2.5V11.25H25" stroke="#303030" stroke-linecap="round" stroke-linejoin="round"/>
<path id="Rectangle 2" d="M2.8125 14.0625H16.1029C18.6918 14.0625 20.7904 16.1612 20.7904 18.75C20.7904 21.3388 18.6918 23.4375 16.1029 23.4375H2.8125V14.0625Z" fill="#303030"/>
<g id="PDF">
<path d="M4.91812 21.1767V16.043H6.84326C7.23764 16.043 7.56852 16.1165 7.8359 16.2636C8.10495 16.4106 8.30799 16.6128 8.44503 16.8702C8.58373 17.1259 8.65308 17.4166 8.65308 17.7425C8.65308 18.0717 8.58373 18.3642 8.44503 18.6198C8.30632 18.8755 8.10161 19.0769 7.83089 19.224C7.56017 19.3693 7.22678 19.442 6.83072 19.442H5.55482V18.6775H6.70539C6.936 18.6775 7.12484 18.6374 7.2719 18.5572C7.41896 18.477 7.52758 18.3667 7.59777 18.2263C7.66963 18.0859 7.70555 17.9247 7.70555 17.7425C7.70555 17.5603 7.66963 17.3999 7.59777 17.2612C7.52758 17.1225 7.41812 17.0147 7.26939 16.9379C7.12233 16.8593 6.93266 16.82 6.70037 16.82H5.8481V21.1767H4.91812Z" fill="#F5EDE5"/>
<path d="M10.7064 21.1767H8.96674V16.043H10.7415C11.2512 16.043 11.689 16.1457 12.055 16.3513C12.4226 16.5552 12.705 16.8484 12.9022 17.2311C13.0994 17.6138 13.198 18.0717 13.198 18.6048C13.198 19.1396 13.0986 19.5991 12.8997 19.9835C12.7025 20.3678 12.4176 20.6628 12.045 20.8683C11.674 21.0739 11.2278 21.1767 10.7064 21.1767ZM9.89672 20.372H10.6613C11.0189 20.372 11.3172 20.3068 11.5561 20.1765C11.7951 20.0445 11.9748 19.8481 12.0951 19.5874C12.2154 19.3251 12.2756 18.9975 12.2756 18.6048C12.2756 18.2121 12.2154 17.8862 12.0951 17.6272C11.9748 17.3665 11.7968 17.1718 11.5612 17.0431C11.3272 16.9128 11.0364 16.8476 10.6888 16.8476H9.89672V20.372Z" fill="#F5EDE5"/>
<path d="M13.5875 21.1767V16.043H16.8763V16.8225H14.5175V18.2163H16.6507V18.9958H14.5175V21.1767H13.5875Z" fill="#F5EDE5"/>
</g>
</g>
</svg>
