<svg width="30" height="30" viewBox="0 0 30 30" fill="none" xmlns="http://www.w3.org/2000/svg">
<g id="icon-pptx">
<path id="Vector" d="M16.25 2.5H7.5C6.83696 2.5 6.20107 2.76339 5.73223 3.23223C5.26339 3.70107 5 4.33696 5 5V25C5 25.663 5.26339 26.2989 5.73223 26.7678C6.20107 27.2366 6.83696 27.5 7.5 27.5H22.5C23.163 27.5 23.7989 27.2366 24.2678 26.7678C24.7366 26.2989 25 25.663 25 25V11.25L16.25 2.5Z" stroke="#303030" stroke-linecap="round" stroke-linejoin="round"/>
<path id="Vector_2" d="M16.25 2.5V11.25H25" stroke="#303030" stroke-linecap="round" stroke-linejoin="round"/>
<path id="Rectangle 2" d="M2.8125 14.0625H18.75C21.3388 14.0625 23.4375 16.1612 23.4375 18.75C23.4375 21.3388 21.3388 23.4375 18.75 23.4375H2.8125V14.0625Z" fill="#303030"/>
<g id="PPTX">
<path d="M4.41171 21.4569V16.3232H6.33685C6.73123 16.3232 7.06211 16.3968 7.32949 16.5438C7.59854 16.6909 7.80159 16.8931 7.93862 17.1504C8.07732 17.4061 8.14667 17.6969 8.14667 18.0228C8.14667 18.352 8.07732 18.6444 7.93862 18.9001C7.79992 19.1558 7.5952 19.3572 7.32448 19.5042C7.05376 19.6496 6.72037 19.7223 6.32431 19.7223H5.04841V18.9578H6.19898C6.42959 18.9578 6.61843 18.9177 6.76549 18.8374C6.91255 18.7572 7.02117 18.6469 7.09136 18.5066C7.16322 18.3662 7.19915 18.2049 7.19915 18.0228C7.19915 17.8406 7.16322 17.6802 7.09136 17.5415C7.02117 17.4028 6.91171 17.295 6.76298 17.2181C6.61592 17.1396 6.42625 17.1003 6.19397 17.1003H5.34169V21.4569H4.41171Z" fill="#F5EDE5"/>
<path d="M8.46033 21.4569V16.3232H10.3855C10.7799 16.3232 11.1107 16.3968 11.3781 16.5438C11.6472 16.6909 11.8502 16.8931 11.9872 17.1504C12.1259 17.4061 12.1953 17.6969 12.1953 18.0228C12.1953 18.352 12.1259 18.6444 11.9872 18.9001C11.8485 19.1558 11.6438 19.3572 11.3731 19.5042C11.1024 19.6496 10.769 19.7223 10.3729 19.7223H9.09703V18.9578H10.2476C10.4782 18.9578 10.6671 18.9177 10.8141 18.8374C10.9612 18.7572 11.0698 18.6469 11.14 18.5066C11.2118 18.3662 11.2478 18.2049 11.2478 18.0228C11.2478 17.8406 11.2118 17.6802 11.14 17.5415C11.0698 17.4028 10.9603 17.295 10.8116 17.2181C10.6645 17.1396 10.4749 17.1003 10.2426 17.1003H9.39031V21.4569H8.46033Z" fill="#F5EDE5"/>
<path d="M12.2834 17.1028V16.3232H16.3793V17.1028H14.7925V21.4569H13.8701V17.1028H12.2834Z" fill="#F5EDE5"/>
<path d="M17.4518 16.3232L18.5824 18.2033H18.6225L19.758 16.3232H20.8183L19.2366 18.8901L20.8434 21.4569H19.7655L18.6225 19.5895H18.5824L17.4393 21.4569H16.3664L17.9883 18.8901L16.3865 16.3232H17.4518Z" fill="#F5EDE5"/>
</g>
</g>
</svg>
