<svg width="21" height="21" viewBox="0 0 21 21" fill="none" xmlns="http://www.w3.org/2000/svg">
<g id="icon-bullet">
<g id="object">
<path id="Vector" d="M16.0968 7.52366C15.8501 7.52366 15.6106 7.55445 15.3817 7.61198C15.7599 6.56 15.6341 5.36399 14.945 4.41127C13.8528 2.90137 12.0811 2 10.2061 2C8.33071 2 6.55929 2.9015 5.46736 4.41138C5.03117 5.01457 4.82033 5.71505 4.82033 6.415C4.82046 6.92352 4.93208 7.43157 5.14897 7.90161C4.96696 7.8613 4.77802 7.83934 4.58389 7.83934C3.15924 7.83934 2 8.98543 2 10.3941C2 11.8028 3.15924 12.9487 4.58389 12.9487C4.82216 12.9487 5.05272 12.916 5.27196 12.8561C4.9741 13.3911 4.82033 13.9877 4.82033 14.585C4.82059 15.2848 5.03117 15.9856 5.46736 16.5886C6.55929 18.0985 8.33071 19 10.2061 19C12.0811 19 13.8528 18.0986 14.945 16.5886C15.6867 15.5632 15.7762 14.2559 15.2866 13.1498C15.5439 13.2239 15.8156 13.2644 16.0968 13.2644C17.6978 13.2644 19 11.9768 19 10.3941C19 8.81128 17.6978 7.52366 16.0968 7.52366ZM13.238 10.8906C13.1116 10.7636 12.9878 10.6333 12.8666 10.5C12.9774 10.3782 13.0904 10.2591 13.2055 10.1425C13.1981 10.2255 13.1937 10.3093 13.1937 10.3941C13.1937 10.5635 13.2094 10.7292 13.238 10.8906ZM6.3466 5.03283C7.23613 3.80287 8.67874 3.06861 10.2061 3.06861C11.7331 3.06861 13.176 3.80287 14.0658 5.03283C14.3663 5.44855 14.5115 5.93199 14.5115 6.41633C14.5115 7.15006 14.1782 7.88565 13.5478 8.38965C13.061 8.77888 12.6022 9.20533 12.1727 9.66595C11.9424 9.36314 11.7235 9.04801 11.5175 8.72022C11.0125 7.91709 10.8431 7.27425 11.0415 6.91097C11.2708 6.48963 11.9986 6.37901 12.2577 6.37197C12.5524 6.36637 12.7876 6.12829 12.7876 5.83806V5.82735C12.7818 5.53243 12.535 5.29789 12.2366 5.30365C12.087 5.3065 10.8301 5.35671 10.2061 6.21974C9.58226 5.35671 8.32513 5.3065 8.17551 5.30365C7.87788 5.29789 7.63271 5.5311 7.62588 5.82527C7.6256 5.82959 7.62561 5.83375 7.62561 5.83806C7.62561 6.12648 7.85913 6.364 8.15229 6.37197C8.41355 6.37901 9.14157 6.48963 9.3709 6.91097C9.56907 7.27478 9.39964 7.91709 8.89484 8.72022C8.68888 9.04803 8.47002 9.36314 8.23968 9.66595C7.8102 9.20533 7.35135 8.77888 6.86459 8.38965C5.81777 7.55275 5.59058 6.07849 6.3466 5.03283ZM11.4573 10.5C11.1526 10.886 10.8661 11.2913 10.5992 11.7157C10.4428 11.9649 10.3116 12.2047 10.2061 12.435C10.1005 12.2047 9.96963 11.9649 9.81315 11.7157C9.54633 11.2913 9.25974 10.886 8.95509 10.5C9.25974 10.114 9.54633 9.70867 9.81315 9.28427C9.96963 9.03513 10.1008 8.79537 10.2063 8.56502C10.3119 8.79537 10.4428 9.03513 10.5992 9.28427C10.8661 9.70867 11.1526 10.114 11.4573 10.5ZM7.14816 10.0828C7.28375 10.2182 7.41615 10.3575 7.5458 10.5C7.40175 10.6584 7.2542 10.8126 7.10284 10.9621C7.14501 10.7793 7.16803 10.5894 7.16803 10.3941C7.16803 10.2887 7.16078 10.185 7.14816 10.0828ZM2.81064 10.3941C2.81064 9.42736 3.60625 8.64079 4.58389 8.64079C5.56184 8.64079 6.35741 9.42736 6.35741 10.3941C6.35741 11.3608 5.56184 12.1473 4.58389 12.1473C3.60625 12.1473 2.81064 11.3608 2.81064 10.3941ZM14.0658 15.9671C13.176 17.1972 11.7331 17.9314 10.2061 17.9314C8.67874 17.9314 7.23613 17.1972 6.3466 15.9672C5.59058 14.9218 5.81777 13.4473 6.8646 12.6103C7.35135 12.2211 7.8102 11.7947 8.23968 11.3341C8.47002 11.6369 8.68888 11.952 8.89484 12.2798C9.39964 13.0828 9.56908 13.7259 9.3709 14.0891C9.14157 14.5104 8.41381 14.621 8.15257 14.6281C7.85862 14.6347 7.62455 14.8724 7.62455 15.162V15.1726C7.63037 15.4676 7.87707 15.7021 8.17551 15.6964C8.32513 15.6935 9.58226 15.6433 10.2061 14.7803C10.8301 15.6433 12.087 15.6935 12.2366 15.6964C12.535 15.7021 12.7818 15.4676 12.7876 15.1726V15.162C12.7876 14.8717 12.5524 14.6337 12.2577 14.6281C12.2485 14.6278 11.3156 14.5879 11.0426 14.0913C10.8436 13.7279 11.0114 13.0844 11.5175 12.2798C11.7235 11.952 11.9424 11.6369 12.1727 11.3341C12.6022 11.7947 13.061 12.2211 13.5478 12.6103C14.5946 13.447 14.8218 14.9218 14.0658 15.9671ZM16.0968 12.4629C14.9429 12.4629 14.0043 11.5348 14.0043 10.3941C14.0043 9.25324 14.9429 8.3251 16.0968 8.3251C17.2508 8.3251 18.1894 9.25324 18.1894 10.3941C18.1894 11.5348 17.2508 12.4629 16.0968 12.4629Z" fill="#D7551C"/>
<path id="Vector_2" d="M16.097 8.63672C15.1152 8.63672 14.3192 9.42369 14.3192 10.3944C14.3192 11.3652 15.1152 12.1522 16.097 12.1522C17.0789 12.1522 17.8749 11.3652 17.8749 10.3944C17.8749 9.42367 17.0789 8.63672 16.097 8.63672Z" fill="#D7551C"/>
</g>
</g>
</svg>
