<svg width="30" height="30" viewBox="0 0 30 30" fill="none" xmlns="http://www.w3.org/2000/svg">
<g id="icon-xlsx">
<path id="Vector" d="M16.25 2.5H7.5C6.83696 2.5 6.20107 2.76339 5.73223 3.23223C5.26339 3.70107 5 4.33696 5 5V25C5 25.663 5.26339 26.2989 5.73223 26.7678C6.20107 27.2366 6.83696 27.5 7.5 27.5H22.5C23.163 27.5 23.7989 27.2366 24.2678 26.7678C24.7366 26.2989 25 25.663 25 25V11.25L16.25 2.5Z" stroke="#303030" stroke-linecap="round" stroke-linejoin="round"/>
<path id="Vector_2" d="M16.25 2.5V11.25H25" stroke="#303030" stroke-linecap="round" stroke-linejoin="round"/>
<path id="Rectangle 2" d="M2.8125 14.0625H19.6323C22.2212 14.0625 24.3199 16.1612 24.3199 18.75C24.3199 21.3388 22.2212 23.4375 19.6324 23.4375H2.8125V14.0625Z" fill="#303030"/>
<g id="XLSX">
<path d="M5.69518 16.0428L6.8257 17.9229H6.8658L8.00133 16.0428H9.06166L7.47994 18.6097L9.08672 21.1765H8.00885L6.8658 19.3091H6.8257L5.68265 21.1765H4.60979L6.23161 18.6097L4.62984 16.0428H5.69518Z" fill="#F5EDE5"/>
<path d="M9.29761 21.1765V16.0428H10.2276V20.397H12.4886V21.1765H9.29761Z" fill="#F5EDE5"/>
<path d="M15.5916 17.4541C15.5682 17.2352 15.4696 17.0647 15.2958 16.9427C15.1237 16.8208 14.8998 16.7598 14.624 16.7598C14.4302 16.7598 14.2639 16.789 14.1252 16.8475C13.9865 16.906 13.8804 16.9854 13.8068 17.0856C13.7333 17.1859 13.6957 17.3004 13.694 17.429C13.694 17.536 13.7183 17.6287 13.7667 17.7073C13.8169 17.7858 13.8845 17.8527 13.9698 17.9078C14.055 17.9613 14.1494 18.0064 14.253 18.0432C14.3566 18.0799 14.4611 18.1109 14.5664 18.1359L15.0476 18.2562C15.2415 18.3014 15.4278 18.3624 15.6066 18.4392C15.7871 18.5161 15.9484 18.613 16.0904 18.73C16.2341 18.847 16.3478 18.9882 16.4313 19.1536C16.5149 19.3191 16.5567 19.5129 16.5567 19.7352C16.5567 20.036 16.4798 20.3009 16.3261 20.5298C16.1723 20.7571 15.9501 20.9351 15.6593 21.0637C15.3702 21.1907 15.0201 21.2542 14.609 21.2542C14.2096 21.2542 13.8628 21.1924 13.5687 21.0687C13.2763 20.9451 13.0473 20.7646 12.8819 20.5273C12.7181 20.29 12.6295 20.0009 12.6162 19.66H13.5311C13.5445 19.8388 13.5996 19.9875 13.6965 20.1062C13.7935 20.2248 13.9196 20.3134 14.0751 20.3719C14.2321 20.4304 14.4076 20.4596 14.6015 20.4596C14.8037 20.4596 14.9808 20.4295 15.1329 20.3694C15.2866 20.3075 15.4069 20.2223 15.4938 20.1137C15.5807 20.0034 15.625 19.8747 15.6267 19.7277C15.625 19.594 15.5857 19.4837 15.5089 19.3968C15.432 19.3082 15.3242 19.2347 15.1855 19.1762C15.0485 19.116 14.8881 19.0626 14.7042 19.0158L14.1202 18.8654C13.6974 18.7567 13.3632 18.5921 13.1175 18.3716C12.8735 18.1493 12.7515 17.8543 12.7515 17.4867C12.7515 17.1842 12.8334 16.9193 12.9972 16.6921C13.1626 16.4648 13.3874 16.2885 13.6715 16.1632C13.9556 16.0362 14.2773 15.9727 14.6365 15.9727C15.0009 15.9727 15.32 16.0362 15.5941 16.1632C15.8698 16.2885 16.0862 16.4631 16.2433 16.6871C16.4004 16.9093 16.4815 17.165 16.4865 17.4541H15.5916Z" fill="#F5EDE5"/>
<path d="M17.6687 16.0428L18.7992 17.9229H18.8393L19.9749 16.0428H21.0352L19.4535 18.6097L21.0603 21.1765H19.9824L18.8393 19.3091H18.7992L17.6562 21.1765H16.5833L18.2051 18.6097L16.6034 16.0428H17.6687Z" fill="#F5EDE5"/>
</g>
</g>
</svg>
